<svg xmlns="http://www.w3.org/2000/svg" fill="white" stroke="white" shape-rendering="geometricPrecision" text-rendering="geometricPrecision" image-rendering="optimizeQuality" fill-rule="evenodd" clip-rule="evenodd" viewBox="0 0 257 512.357"><path fill-rule="nonzero" d="M51.061 177.324h154.878v-7.823c0-8.082-3.032-14.064-7.966-18.056v-.034c-6.07-4.915-15.182-7.305-25.492-7.305H84.519c-10.31 0-19.425 2.387-25.495 7.302-4.934 3.995-7.963 9.984-7.963 18.093v7.823zm146.446-46.416c4.269 1.746 8.176 3.998 11.605 6.771 9.036 7.281 14.57 17.85 14.57 31.822v10.63a50.05 50.05 0 0118.678 11.797l.036.036c9.006 9.011 14.604 21.439 14.604 35.098v235.56c0 13.641-5.595 26.068-14.607 35.092l-.036.037c-9.042 9.02-21.461 14.606-35.092 14.606H49.735c-13.659 0-26.084-5.598-35.095-14.603l-.036-.037C5.598 488.706 0 476.281 0 462.622v-235.56c0-13.686 5.592-26.123 14.604-35.134a49.95 49.95 0 0118.714-11.807v-10.62c0-13.951 5.534-24.511 14.552-31.813 3.441-2.785 7.369-5.046 11.657-6.795.277-13.174 2.139-23.566 7.67-32.523 4.967-8.042 12.528-14.302 24.078-19.571-10.124-28.006-6.308-48.888 3.569-62.077C103.044 5.769 115.353.165 127.711.004c12.36-.162 24.788 5.122 33.214 15.941 10.154 13.031 14.348 34.034 4.642 62.757 11.756 5.302 19.381 11.544 24.364 19.619 5.516 8.948 7.314 19.321 7.576 32.587zm13.019 64.323H46.511c-7.512.762-14.284 4.16-19.364 9.24-5.802 5.802-9.404 13.802-9.404 22.591v235.56c0 8.802 3.599 16.804 9.386 22.607 5.802 5.787 13.805 9.386 22.606 9.386h157.53c8.81 0 16.807-3.593 22.585-9.371l.036-.037c5.778-5.778 9.371-13.774 9.371-22.585v-21.076h-52.319a8.875 8.875 0 010-17.748h52.319v-41.742h-52.319a8.875 8.875 0 010-17.748h52.319v-41.744h-52.319a8.875 8.875 0 010-17.749h52.319v-41.756h-52.319a8.875 8.875 0 010-17.749h52.319v-18.248c0-8.801-3.599-16.807-9.386-22.609-5.077-5.065-11.839-8.454-19.345-9.222zM105.388 92.135c-12.214 4.474-19.324 9.316-23.155 15.518-2.873 4.653-4.221 10.59-4.736 18.105h102.054c-.496-7.586-1.807-13.531-4.656-18.154-3.837-6.22-11.063-11.056-23.643-15.612-4.592-1.664-6.966-6.738-5.302-11.331l.244-.6c10.608-25.962 8.399-43.488.804-53.237-4.836-6.207-11.976-9.243-19.08-9.151-7.113.091-14.207 3.331-18.94 9.648-7.415 9.898-9.283 27.379 1.896 52.786 1.968 4.476-.061 9.706-4.538 11.674l-.948.354z"/></svg>